<svg width="32" height="32" viewBox="-16 -16 32 32" xmlns="http://www.w3.org/2000/svg">
    <!-- Innerer grauer Kreis des Zahnrads -->
    <circle cx="0" cy="0" r="6" fill="gray" />

    <!-- Zähne des Zahnrads -->
    <g fill="none" stroke="black" stroke-width="0.5">
        <!-- Breitere Zähne mit 16 Rotationen und Überlappungen -->
        <path d="M6,2 L12,2 L8,0 L12,-2 L6,-2 Z" transform="rotate(0)" />
        <path d="M6,2 L12,2 L8,0 L12,-2 L6,-2 Z" transform="rotate(22.5)" />
        <path d="M6,2 L12,2 L8,0 L12,-2 L6,-2 Z" transform="rotate(45)" />
        <path d="M6,2 L12,2 L8,0 L12,-2 L6,-2 Z" transform="rotate(67.5)" />
        <path d="M6,2 L12,2 L8,0 L12,-2 L6,-2 Z" transform="rotate(90)" />
        <path d="M6,2 L12,2 L8,0 L12,-2 L6,-2 Z" transform="rotate(112.5)" />
        <path d="M6,2 L12,2 L8,0 L12,-2 L6,-2 Z" transform="rotate(135)" />
        <path d="M6,2 L12,2 L8,0 L12,-2 L6,-2 Z" transform="rotate(157.5)" />
        <path d="M6,2 L12,2 L8,0 L12,-2 L6,-2 Z" transform="rotate(180)" />
        <path d="M6,2 L12,2 L8,0 L12,-2 L6,-2 Z" transform="rotate(202.5)" />
        <path d="M6,2 L12,2 L8,0 L12,-2 L6,-2 Z" transform="rotate(225)" />
        <path d="M6,2 L12,2 L8,0 L12,-2 L6,-2 Z" transform="rotate(247.5)" />
        <path d="M6,2 L12,2 L8,0 L12,-2 L6,-2 Z" transform="rotate(270)" />
        <path d="M6,2 L12,2 L8,0 L12,-2 L6,-2 Z" transform="rotate(292.5)" />
        <path d="M6,2 L12,2 L8,0 L12,-2 L6,-2 Z" transform="rotate(315)" />
        <path d="M6,2 L12,2 L8,0 L12,-2 L6,-2 Z" transform="rotate(337.5)" />
    </g>
</svg>
